<svg width="97" height="90" viewBox="0 0 97 90" fill="none" xmlns="http://www.w3.org/2000/svg">
<g clip-path="url(#clip0_1_845)">
<path d="M32.2003 70.9333V78.4M32.2003 48.5333V56M64.2003 70.9333V78.4M64.2003 48.5333V56M48.2003 78.4V85.8666M48.2003 56V63.4666M80.2003 61.8986C84.4053 60.1798 87.8488 57.1631 89.9527 53.3551C92.0566 49.547 92.6928 45.1793 91.7547 40.9852C90.8166 36.7911 88.3611 33.0258 84.8005 30.3215C81.2399 27.6171 76.7909 26.1383 72.2003 26.1333H67.1603C65.8924 21.5507 63.4757 17.315 60.1096 13.7752C56.7434 10.2355 52.5241 7.49306 47.7994 5.77403C43.0747 4.05499 37.98 3.40857 32.9351 3.88803C27.8902 4.36749 23.0396 5.95911 18.7831 8.53169C14.5266 11.1043 10.9862 14.5842 8.45355 18.6845C5.92091 22.7849 4.46862 27.3883 4.21637 32.1154C3.96413 36.8425 4.91916 41.5578 7.00274 45.8728C9.08633 50.1877 12.2388 53.9787 16.2003 56.9333" stroke="#1E1E1E" stroke-width="12.8" stroke-linecap="round" stroke-linejoin="round"/>
</g>
<defs>
<clipPath id="clip0_1_845">
<rect width="96" height="89.6" fill="white" transform="translate(0.200195)"/>
</clipPath>
</defs>
</svg>
